<svg xmlns="http://www.w3.org/2000/svg" xmlns:xlink="http://www.w3.org/1999/xlink" width="150" zoomAndPan="magnify" viewBox="0 0 112.5 60" height="80" preserveAspectRatio="xMidYMid meet" version="1.0"><defs><clipPath id="f0449fd496"><path d="M 6 17.992188 L 106 17.992188 L 106 41.886719 L 6 41.886719 Z M 6 17.992188 " clip-rule="nonzero"/></clipPath></defs><g clip-path="url(#f0449fd496)"><path fill="#80c343" d="M 105.582031 19.070312 C 105.222656 18.589844 104.863281 18.230469 103.121094 18.113281 C 102.703125 18.054688 101.199219 18.054688 98.738281 18.054688 C 92.257812 18.054688 87.816406 20.023438 85.59375 23.90625 C 86.195312 19.964844 82.414062 18.054688 74.128906 18.054688 C 64.464844 17.992188 58.402344 21.9375 55.941406 29.703125 C 55.039062 31.972656 54.980469 34.480469 55.640625 36.871094 L 53.359375 37.046875 C 51.558594 37.167969 49.21875 37.289062 47.777344 37.289062 C 44.234375 37.289062 42.015625 36.691406 41.175781 35.496094 C 40.394531 34.421875 40.515625 32.449219 41.355469 29.523438 C 42.855469 24.742188 46.515625 22.59375 52.339844 22.59375 C 55.402344 22.59375 58.34375 22.890625 58.34375 22.890625 C 58.703125 22.832031 58.941406 22.472656 58.882812 22.113281 C 58.882812 22.113281 58.882812 22.113281 58.882812 22.054688 L 58.824219 21.578125 L 58.640625 19.964844 C 58.523438 18.890625 57.742188 18.292969 56.300781 18.054688 C 55.039062 18.054688 54.019531 17.992188 52.578125 17.992188 L 52.519531 17.992188 C 44.835938 17.992188 39.492188 20.5625 36.492188 25.578125 C 37.574219 20.503906 34.03125 17.992188 25.808594 17.992188 C 22.507812 17.933594 19.265625 18.054688 16.023438 18.410156 C 14.761719 18.410156 13.683594 19.128906 13.261719 20.324219 L 12.601562 22.414062 C 12.480469 22.773438 12.664062 23.011719 13.140625 23.011719 C 13.503906 22.953125 14.882812 22.832031 17.285156 22.652344 C 20.40625 22.292969 22.746094 22.175781 24.246094 22.175781 C 28.75 22.175781 30.671875 23.308594 29.949219 25.578125 C 29.828125 26.058594 29.410156 26.414062 28.929688 26.535156 C 24.667969 27.253906 21.246094 27.730469 18.785156 28.089844 C 11.703125 28.925781 7.679688 31.136719 6.539062 34.660156 C 5.039062 39.4375 8.820312 41.828125 17.882812 41.828125 C 21.667969 41.886719 25.507812 41.589844 29.230469 41.050781 C 30.96875 40.753906 31.871094 40.273438 32.230469 39.140625 L 33.910156 33.761719 C 33.730469 39.140625 37.511719 41.828125 45.195312 41.828125 C 47.898438 41.886719 50.539062 41.769531 53.179688 41.46875 C 54.742188 41.171875 55.519531 40.871094 55.882812 39.675781 L 56.242188 38.003906 C 57.863281 40.574219 61.464844 41.828125 67.046875 41.828125 C 72.929688 41.828125 76.351562 41.648438 77.308594 41.347656 C 77.96875 41.230469 78.570312 40.753906 78.8125 40.09375 C 78.871094 39.976562 78.871094 39.855469 78.871094 39.738281 L 79.589844 37.46875 C 79.710938 37.046875 79.53125 36.871094 79.050781 36.871094 L 75.269531 37.046875 C 72.75 37.167969 70.828125 37.289062 69.386719 37.226562 C 67.527344 37.347656 65.664062 37.167969 63.863281 36.691406 C 62.425781 36.210938 61.523438 34.777344 61.761719 33.285156 L 73.648438 31.730469 C 78.992188 31.074219 82.53125 29.402344 84.332031 26.835938 L 80.3125 40.871094 C 80.25 41.109375 80.25 41.347656 80.371094 41.527344 C 80.613281 41.707031 80.851562 41.828125 81.152344 41.769531 L 86.074219 41.769531 C 86.613281 41.828125 87.214844 41.527344 87.335938 40.929688 L 91.65625 25.757812 C 92.257812 23.789062 94.058594 22.773438 97.238281 22.773438 C 100.121094 22.773438 102.28125 22.773438 103.660156 22.832031 C 103.722656 22.832031 103.722656 22.832031 103.78125 22.832031 C 104.261719 22.832031 104.683594 22.53125 104.800781 22.054688 L 105.582031 19.964844 C 105.824219 19.785156 105.824219 19.367188 105.582031 19.070312 M 26.289062 37.289062 C 24.066406 37.585938 21.847656 37.707031 19.683594 37.644531 C 14.703125 37.644531 12.480469 36.628906 13.140625 34.597656 C 13.621094 33.164062 14.882812 32.269531 17.105469 31.972656 L 28.449219 30.476562 Z M 78.871094 25.042969 C 78.390625 26.59375 76.167969 27.671875 72.207031 28.207031 L 62.722656 29.582031 L 62.964844 28.804688 C 63.445312 26.714844 64.585938 24.863281 66.324219 23.609375 C 67.765625 22.710938 70.105469 22.234375 73.347656 22.234375 C 77.609375 22.175781 79.472656 23.128906 78.871094 25.042969 " fill-opacity="1" fill-rule="nonzero"/></g></svg>