<svg xmlns="http://www.w3.org/2000/svg" xmlns:xlink="http://www.w3.org/1999/xlink" width="150" zoomAndPan="magnify" viewBox="0 0 112.5 60" height="80" preserveAspectRatio="xMidYMid meet" version="1.0"><defs><clipPath id="934c1aa77d"><path d="M 0 0.132812 L 112.003906 0.132812 L 112.003906 59.867188 L 0 59.867188 Z M 0 0.132812 " clip-rule="nonzero"/></clipPath><clipPath id="6f39a93579"><path d="M 5.972656 23 L 11 23 L 11 28 L 5.972656 28 Z M 5.972656 23 " clip-rule="nonzero"/></clipPath><clipPath id="1e6458ad58"><path d="M 72 23 L 73.175781 23 L 73.175781 24 L 72 24 Z M 72 23 " clip-rule="nonzero"/></clipPath></defs><g clip-path="url(#934c1aa77d)"><path fill="#ffffff" d="M 0 0.132812 L 112.003906 0.132812 L 112.003906 59.867188 L 0 59.867188 Z M 0 0.132812 " fill-opacity="1" fill-rule="nonzero"/><path fill="#ffffff" d="M 0 0.132812 L 112.003906 0.132812 L 112.003906 59.867188 L 0 59.867188 Z M 0 0.132812 " fill-opacity="1" fill-rule="nonzero"/></g><path fill="#000000" d="M 6.035156 31.1875 L 71.773438 31.1875 L 71.773438 31.335938 L 6.035156 31.335938 Z M 6.035156 31.1875 " fill-opacity="1" fill-rule="nonzero"/><path fill="#000000" d="M 30.207031 37.714844 L 28.464844 37.714844 L 28.164062 38.464844 L 27.863281 38.464844 L 29.203125 35.089844 L 29.460938 35.089844 L 30.800781 38.464844 L 30.5 38.464844 Z M 30.109375 37.453125 L 29.339844 35.464844 L 28.566406 37.457031 Z M 30.109375 37.453125 " fill-opacity="1" fill-rule="nonzero"/><path fill="#000000" d="M 33.925781 36.9375 L 33.257812 36.9375 L 33.257812 38.46875 L 32.96875 38.46875 L 32.96875 35.089844 L 34.019531 35.089844 C 34.207031 35.085938 34.382812 35.125 34.550781 35.207031 C 34.695312 35.285156 34.808594 35.394531 34.890625 35.535156 C 34.96875 35.683594 35.007812 35.839844 35.003906 36.003906 C 35.011719 36.230469 34.941406 36.429688 34.800781 36.605469 C 34.65625 36.78125 34.46875 36.886719 34.238281 36.917969 L 35.203125 38.46875 L 34.859375 38.46875 Z M 33.257812 36.667969 L 33.984375 36.667969 C 34.191406 36.683594 34.375 36.621094 34.53125 36.488281 C 34.664062 36.355469 34.722656 36.195312 34.714844 36.007812 C 34.722656 35.824219 34.660156 35.664062 34.527344 35.535156 C 34.371094 35.40625 34.191406 35.347656 33.984375 35.359375 L 33.257812 35.359375 Z M 33.257812 36.667969 " fill-opacity="1" fill-rule="nonzero"/><path fill="#000000" d="M 37.703125 35.355469 L 37.703125 36.640625 L 39.261719 36.640625 L 39.261719 36.910156 L 37.703125 36.910156 L 37.703125 38.195312 L 39.453125 38.195312 L 39.453125 38.464844 L 37.421875 38.464844 L 37.421875 35.085938 L 39.453125 35.085938 L 39.453125 35.355469 Z M 37.703125 35.355469 " fill-opacity="1" fill-rule="nonzero"/><path fill="#000000" d="M 44.535156 35.089844 L 44.535156 38.46875 L 44.234375 38.46875 L 42.074219 35.507812 L 42.074219 38.464844 L 41.789062 38.464844 L 41.789062 35.089844 L 42.089844 35.089844 L 44.246094 38.039062 L 44.246094 35.089844 Z M 44.535156 35.089844 " fill-opacity="1" fill-rule="nonzero"/><path fill="#000000" d="M 49.039062 37.714844 L 47.296875 37.714844 L 47.003906 38.464844 L 46.703125 38.464844 L 48.039062 35.089844 L 48.296875 35.089844 L 49.640625 38.464844 L 49.339844 38.464844 Z M 48.9375 37.453125 L 48.167969 35.464844 L 47.398438 37.457031 Z M 48.9375 37.453125 " fill-opacity="1" fill-rule="nonzero"/><path fill="#000000" d="M 70.695312 25.515625 L 71.21875 25.046875 L 69.605469 25.046875 L 69.605469 25.515625 Z M 70.695312 25.515625 " fill-opacity="1" fill-rule="nonzero"/><path fill="#000000" d="M 71.574219 26.804688 L 69.183594 26.800781 L 69.183594 23.847656 L 71.484375 23.847656 L 71.484375 23.359375 L 68.640625 23.359375 L 68.640625 27.28125 L 71.628906 27.28125 L 71.628906 26.804688 Z M 71.574219 26.804688 " fill-opacity="1" fill-rule="nonzero"/><path fill="#000000" d="M 15.152344 23.359375 L 14.609375 23.359375 L 14.609375 27.28125 L 17.214844 27.28125 L 17.742188 26.800781 L 15.152344 26.800781 Z M 15.152344 23.359375 " fill-opacity="1" fill-rule="nonzero"/><path fill="#000000" d="M 22.328125 23.359375 L 22.871094 23.359375 L 22.871094 27.28125 L 22.328125 27.28125 Z M 22.328125 23.359375 " fill-opacity="1" fill-rule="nonzero"/><path fill="#000000" d="M 38.390625 26.519531 L 35.796875 23.371094 L 35.789062 23.359375 L 35.242188 23.359375 L 35.242188 27.28125 L 35.761719 27.28125 L 35.761719 24.113281 L 38.355469 27.273438 L 38.363281 27.28125 L 38.90625 27.28125 L 38.90625 23.359375 L 38.390625 23.359375 Z M 38.390625 26.519531 " fill-opacity="1" fill-rule="nonzero"/><path fill="#000000" d="M 47.765625 26.585938 L 46.597656 23.386719 L 46.589844 23.367188 L 46.09375 23.367188 L 44.917969 26.582031 L 43.996094 23.386719 L 43.992188 23.367188 L 43.425781 23.367188 L 44.5625 27.273438 L 44.566406 27.289062 L 45.171875 27.289062 L 46.339844 24.136719 L 47.503906 27.289062 L 48.105469 27.289062 L 49.25 23.398438 L 49.261719 23.367188 L 48.691406 23.367188 Z M 47.765625 26.585938 " fill-opacity="1" fill-rule="nonzero"/><path fill="#000000" d="M 63.933594 25.238281 C 64.125 25.058594 64.214844 24.839844 64.203125 24.578125 L 64.203125 24.441406 C 64.203125 24.28125 64.171875 24.132812 64.105469 23.988281 C 64.039062 23.855469 63.949219 23.742188 63.832031 23.652344 C 63.703125 23.550781 63.558594 23.480469 63.402344 23.4375 C 63.226562 23.386719 63.042969 23.363281 62.855469 23.367188 L 60.839844 23.367188 L 60.839844 27.28125 L 61.382812 27.28125 L 61.382812 23.847656 L 62.824219 23.847656 C 63.082031 23.828125 63.304688 23.90625 63.5 24.074219 C 63.609375 24.1875 63.664062 24.320312 63.660156 24.476562 L 63.660156 24.605469 C 63.660156 24.695312 63.640625 24.78125 63.589844 24.863281 C 63.546875 24.9375 63.484375 25 63.414062 25.050781 C 63.335938 25.101562 63.25 25.140625 63.15625 25.160156 C 63.058594 25.1875 62.960938 25.203125 62.859375 25.207031 L 61.582031 25.207031 L 61.582031 25.671875 L 62.75 25.671875 L 63.691406 27.269531 L 63.691406 27.28125 L 64.292969 27.28125 L 63.265625 25.554688 C 63.515625 25.507812 63.730469 25.402344 63.917969 25.238281 " fill-opacity="1" fill-rule="nonzero"/><g clip-path="url(#6f39a93579)"><path fill="#000000" d="M 8.648438 25.425781 L 7.382812 25.425781 L 8.003906 23.949219 Z M 7.71875 23.316406 L 5.988281 27.253906 L 5.972656 27.285156 L 6.574219 27.285156 L 7.183594 25.902344 L 8.855469 25.902344 L 9.457031 27.289062 L 10.054688 27.289062 L 8.285156 23.316406 Z M 7.71875 23.316406 " fill-opacity="1" fill-rule="nonzero"/></g><path fill="#000000" d="M 55.457031 25.425781 L 54.1875 25.425781 L 54.808594 23.949219 Z M 54.527344 23.316406 L 52.800781 27.253906 L 52.785156 27.285156 L 53.386719 27.285156 L 53.894531 26.132812 L 53.992188 25.898438 L 55.664062 25.898438 L 56.261719 27.269531 L 56.261719 27.285156 L 56.863281 27.285156 L 55.09375 23.316406 Z M 54.527344 23.316406 " fill-opacity="1" fill-rule="nonzero"/><path fill="#000000" d="M 29.542969 25.515625 L 30.070312 25.046875 L 28.453125 25.046875 L 28.453125 25.515625 Z M 29.542969 25.515625 " fill-opacity="1" fill-rule="nonzero"/><path fill="#000000" d="M 28.03125 26.800781 L 28.03125 23.847656 L 30.335938 23.847656 L 30.335938 23.359375 L 27.488281 23.359375 L 27.488281 27.28125 L 30.480469 27.28125 L 30.480469 26.804688 L 30.425781 26.804688 Z M 28.03125 26.800781 " fill-opacity="1" fill-rule="nonzero"/><path fill="#000000" d="M 71.984375 23.4375 L 71.984375 23.359375 L 72.453125 23.359375 L 72.453125 23.4375 L 72.261719 23.4375 L 72.261719 23.847656 L 72.171875 23.847656 L 72.171875 23.4375 Z M 71.984375 23.4375 " fill-opacity="1" fill-rule="nonzero"/><g clip-path="url(#1e6458ad58)"><path fill="#000000" d="M 72.667969 23.359375 L 72.875 23.652344 L 73.082031 23.359375 L 73.175781 23.359375 L 73.175781 23.847656 L 73.085938 23.847656 L 73.085938 23.480469 L 72.898438 23.742188 L 72.847656 23.742188 L 72.664062 23.480469 L 72.664062 23.847656 L 72.574219 23.847656 L 72.574219 23.359375 Z M 72.667969 23.359375 " fill-opacity="1" fill-rule="nonzero"/></g></svg>