<svg xmlns="http://www.w3.org/2000/svg" xmlns:xlink="http://www.w3.org/1999/xlink" width="150" zoomAndPan="magnify" viewBox="0 0 112.5 60" height="80" preserveAspectRatio="xMidYMid meet" version="1.0"><defs><clipPath id="f22a0e1a3d"><path d="M 82 18.085938 L 106 18.085938 L 106 41.976562 L 82 41.976562 Z M 82 18.085938 " clip-rule="nonzero"/></clipPath><clipPath id="62317e80b3"><path d="M 82 25 L 99 25 L 99 41.976562 L 82 41.976562 Z M 82 25 " clip-rule="nonzero"/></clipPath></defs><path fill="#000000" d="M 29.558594 40.386719 L 23.964844 40.386719 L 22.304688 36.292969 L 13.0625 36.292969 L 11.511719 40.386719 L 6.0625 40.386719 L 14.363281 19.675781 L 20.320312 19.675781 Z M 17.46875 24.601562 L 14.398438 32.675781 L 20.753906 32.675781 Z M 17.46875 24.601562 " fill-opacity="1" fill-rule="nonzero"/><path fill="#000000" d="M 49.628906 19.675781 L 54.105469 19.675781 L 54.105469 40.386719 L 48.945312 40.386719 L 48.945312 27.496094 L 43.386719 33.976562 L 42.589844 33.976562 L 37.03125 27.460938 L 37.03125 40.347656 L 31.90625 40.347656 L 31.90625 19.675781 L 36.382812 19.675781 L 43.023438 27.386719 Z M 49.628906 19.675781 " fill-opacity="1" fill-rule="nonzero"/><path fill="#000000" d="M 67.136719 19.675781 C 74.679688 19.675781 78.578125 24.382812 78.578125 30.066406 C 78.578125 36.003906 74.824219 40.386719 66.59375 40.386719 L 58.039062 40.386719 L 58.039062 19.675781 Z M 63.203125 36.582031 L 66.558594 36.582031 C 71.722656 36.582031 73.273438 33.070312 73.273438 30.03125 C 73.273438 26.445312 71.359375 23.480469 66.488281 23.480469 L 63.203125 23.480469 Z M 63.203125 36.582031 " fill-opacity="1" fill-rule="nonzero"/><g clip-path="url(#f22a0e1a3d)"><path fill="#000000" d="M 99.445312 24.601562 L 88.796875 24.601562 L 82.296875 18.085938 L 105.941406 18.085938 L 105.941406 41.761719 L 99.445312 35.28125 Z M 99.445312 24.601562 " fill-opacity="1" fill-rule="nonzero"/></g><g clip-path="url(#62317e80b3)"><path fill="#000000" d="M 88.796875 35.28125 L 88.796875 25.902344 L 82.117188 32.601562 L 82.117188 41.976562 L 91.464844 41.976562 L 98.144531 35.28125 Z M 88.796875 35.28125 " fill-opacity="1" fill-rule="nonzero"/></g></svg>