<svg xmlns="http://www.w3.org/2000/svg" xmlns:xlink="http://www.w3.org/1999/xlink" width="150" zoomAndPan="magnify" viewBox="0 0 112.5 60" height="80" preserveAspectRatio="xMidYMid meet" version="1.0"><defs><clipPath id="f7c98fa7f2"><path d="M 34.683594 3.789062 L 77.242188 3.789062 L 77.242188 56.058594 L 34.683594 56.058594 Z M 34.683594 3.789062 " clip-rule="nonzero"/></clipPath></defs><g clip-path="url(#f7c98fa7f2)"><path fill="#000000" d="M 75.910156 21.625 C 72.421875 23.777344 70.269531 27.464844 70.269531 31.5625 C 70.269531 36.171875 73.039062 40.371094 77.242188 42.113281 C 76.421875 44.773438 75.191406 47.234375 73.65625 49.488281 C 71.398438 52.660156 69.039062 55.941406 65.550781 55.941406 C 62.066406 55.941406 61.039062 53.890625 56.9375 53.890625 C 52.9375 53.890625 51.503906 56.042969 48.21875 56.042969 C 44.9375 56.042969 42.683594 53.070312 40.117188 49.382812 C 36.734375 44.261719 34.785156 38.320312 34.683594 32.074219 C 34.683594 21.933594 41.246094 16.503906 47.808594 16.503906 C 51.296875 16.503906 54.167969 18.757812 56.324219 18.757812 C 58.375 18.757812 61.65625 16.402344 65.550781 16.402344 C 69.65625 16.300781 73.550781 18.246094 75.910156 21.625 Z M 63.707031 12.101562 C 65.449219 10.050781 66.371094 7.492188 66.476562 4.828125 C 66.476562 4.519531 66.476562 4.109375 66.371094 3.804688 C 63.398438 4.109375 60.628906 5.546875 58.679688 7.796875 C 56.9375 9.746094 55.910156 12.203125 55.808594 14.867188 C 55.808594 15.171875 55.808594 15.480469 55.914062 15.789062 C 56.117188 15.789062 56.425781 15.890625 56.628906 15.890625 C 59.398438 15.6875 61.964844 14.25 63.707031 12.101562 Z M 63.707031 12.101562 " fill-opacity="1" fill-rule="nonzero"/></g></svg>