<svg xmlns="http://www.w3.org/2000/svg" xmlns:xlink="http://www.w3.org/1999/xlink" width="150" zoomAndPan="magnify" viewBox="0 0 112.5 60" height="80" preserveAspectRatio="xMidYMid meet" version="1.0"><defs><clipPath id="bde56cd989"><path d="M 6 19.722656 L 106 19.722656 L 106 40.628906 L 6 40.628906 Z M 6 19.722656 " clip-rule="nonzero"/></clipPath><clipPath id="1be6df7803"><path d="M 25 19.722656 L 106 19.722656 L 106 40.628906 L 25 40.628906 Z M 25 19.722656 " clip-rule="nonzero"/></clipPath></defs><g clip-path="url(#bde56cd989)"><path fill="#181818" d="M 54.824219 19.722656 L 37.273438 19.722656 C 33.207031 19.722656 31.367188 22.292969 30.984375 24.773438 L 30.984375 19.722656 L 21.222656 19.722656 C 19.855469 19.722656 19.210938 20.15625 18.570312 21.117188 L 15.917969 25.078125 L 54.824219 25.078125 Z M 6.242188 40.628906 L 13.21875 40.628906 L 21.953125 26.253906 L 15.703125 25.644531 Z M 61.585938 19.722656 L 55.851562 19.722656 L 55.851562 25.078125 L 61.585938 25.078125 Z M 98.097656 28.085938 L 80.078125 26.996094 C 80.078125 29.78125 81.875 31.699219 84.957031 31.917969 L 97.753906 32.917969 C 98.738281 33.007812 99.339844 33.269531 99.339844 34.09375 C 99.339844 34.878906 98.652344 35.183594 97.199219 35.183594 L 79.734375 35.183594 L 79.734375 40.628906 L 97.585938 40.628906 C 103.191406 40.628906 105.675781 38.625 105.675781 34.050781 C 105.757812 29.957031 103.535156 28.433594 98.097656 28.085938 Z M 98.097656 28.085938 " fill-opacity="1" fill-rule="nonzero"/></g><g clip-path="url(#1be6df7803)"><path fill="#181818" d="M 79.863281 26.996094 L 74.214844 26.648438 L 74.214844 32.789062 C 74.214844 34.703125 73.273438 35.316406 69.976562 35.316406 L 65.4375 35.316406 C 62.742188 35.316406 61.585938 34.53125 61.585938 32.789062 L 61.585938 26.082031 L 55.851562 25.644531 L 55.851562 33.3125 L 55.722656 33.3125 C 55.378906 31.089844 54.566406 28.519531 49.089844 28.128906 L 31.109375 26.910156 C 31.109375 29.695312 33.082031 31.394531 36.160156 31.699219 L 48.703125 33.007812 C 49.6875 33.09375 50.414062 33.398438 50.414062 34.226562 C 50.414062 35.140625 49.6875 35.226562 48.53125 35.226562 L 30.898438 35.226562 L 30.898438 26.863281 L 25.160156 26.472656 L 25.160156 40.628906 L 48.574219 40.628906 C 53.796875 40.628906 55.464844 37.882812 55.722656 35.574219 L 55.851562 35.574219 C 56.492188 39.234375 59.617188 40.628906 64.925781 40.628906 L 70.746094 40.628906 C 76.953125 40.628906 79.863281 38.710938 79.863281 34.183594 Z M 105.332031 25.078125 L 105.332031 19.722656 L 86.027344 19.722656 C 82.003906 19.722656 80.207031 22.246094 79.863281 24.6875 C 79.863281 24.730469 79.863281 24.730469 79.863281 24.773438 L 79.863281 19.722656 L 74.214844 19.722656 L 74.214844 25.078125 Z M 105.332031 25.078125 " fill-opacity="1" fill-rule="nonzero"/></g></svg>