<svg xmlns="http://www.w3.org/2000/svg" xmlns:xlink="http://www.w3.org/1999/xlink" width="150" zoomAndPan="magnify" viewBox="0 0 112.5 60" height="80" preserveAspectRatio="xMidYMid meet" version="1.0"><defs><clipPath id="4cfc0e53c9"><path d="M 19 18.355469 L 28 18.355469 L 28 29 L 19 29 Z M 19 18.355469 " clip-rule="nonzero"/></clipPath><clipPath id="fea4b3aded"><path d="M 6 22 L 31 22 L 31 41.503906 L 6 41.503906 Z M 6 22 " clip-rule="nonzero"/></clipPath></defs><path fill="#000000" d="M 34.882812 29.953125 L 34.882812 29.929688 C 34.875 29.625 34.902344 29.320312 34.957031 29.019531 C 35.011719 28.71875 35.09375 28.425781 35.210938 28.140625 C 35.324219 27.855469 35.464844 27.585938 35.636719 27.332031 C 35.804688 27.074219 36 26.839844 36.214844 26.621094 C 36.433594 26.40625 36.671875 26.210938 36.929688 26.042969 C 37.183594 25.875 37.457031 25.730469 37.742188 25.617188 C 38.027344 25.503906 38.320312 25.417969 38.625 25.359375 C 38.925781 25.304688 39.230469 25.28125 39.539062 25.285156 C 40.199219 25.261719 40.839844 25.371094 41.453125 25.617188 C 42.066406 25.859375 42.605469 26.214844 43.066406 26.6875 L 42.050781 27.859375 C 41.367188 27.136719 40.523438 26.761719 39.527344 26.738281 C 37.8125 26.738281 36.550781 28.148438 36.550781 29.910156 L 36.550781 29.933594 C 36.550781 31.703125 37.796875 33.113281 39.527344 33.113281 C 40.558594 33.101562 41.421875 32.71875 42.117188 31.960938 L 43.132812 32.984375 C 42.675781 33.507812 42.125 33.910156 41.484375 34.1875 C 40.84375 34.46875 40.171875 34.597656 39.472656 34.574219 C 39.167969 34.578125 38.867188 34.550781 38.566406 34.496094 C 38.269531 34.4375 37.976562 34.351562 37.695312 34.234375 C 37.414062 34.121094 37.144531 33.976562 36.894531 33.808594 C 36.640625 33.640625 36.40625 33.449219 36.191406 33.234375 C 35.976562 33.015625 35.789062 32.78125 35.621094 32.527344 C 35.453125 32.273438 35.3125 32.007812 35.203125 31.726562 C 35.089844 31.445312 35.007812 31.152344 34.953125 30.855469 C 34.898438 30.554688 34.875 30.257812 34.882812 29.953125 Z M 34.882812 29.953125 " fill-opacity="1" fill-rule="nonzero"/><path fill="#000000" d="M 45.875 29.953125 L 45.875 29.929688 C 45.886719 29.628906 45.921875 29.332031 45.988281 29.035156 C 46.054688 28.742188 46.148438 28.453125 46.269531 28.179688 C 46.394531 27.902344 46.539062 27.640625 46.714844 27.390625 C 46.886719 27.140625 47.082031 26.914062 47.296875 26.703125 C 47.515625 26.492188 47.75 26.300781 48.007812 26.136719 C 48.261719 25.972656 48.527344 25.832031 48.808594 25.714844 C 49.089844 25.601562 49.378906 25.515625 49.675781 25.457031 C 49.976562 25.398438 50.277344 25.367188 50.582031 25.367188 C 50.882812 25.367188 51.183594 25.394531 51.484375 25.453125 C 51.78125 25.507812 52.070312 25.59375 52.355469 25.707031 C 52.636719 25.820312 52.902344 25.957031 53.160156 26.121094 C 53.414062 26.285156 53.652344 26.472656 53.871094 26.683594 C 54.089844 26.894531 54.285156 27.121094 54.460938 27.367188 C 54.632812 27.617188 54.78125 27.878906 54.90625 28.152344 C 55.027344 28.429688 55.125 28.714844 55.191406 29.007812 C 55.261719 29.304688 55.300781 29.601562 55.308594 29.902344 L 55.308594 29.929688 C 55.300781 30.234375 55.265625 30.53125 55.199219 30.824219 C 55.132812 31.121094 55.035156 31.40625 54.914062 31.683594 C 54.792969 31.960938 54.644531 32.222656 54.472656 32.46875 C 54.300781 32.71875 54.105469 32.949219 53.886719 33.160156 C 53.667969 33.371094 53.433594 33.558594 53.179688 33.722656 C 52.925781 33.890625 52.65625 34.03125 52.375 34.144531 C 52.09375 34.257812 51.804688 34.34375 51.507812 34.402344 C 51.207031 34.460938 50.90625 34.492188 50.605469 34.492188 C 50.300781 34.492188 50 34.464844 49.699219 34.40625 C 49.402344 34.347656 49.113281 34.265625 48.832031 34.152344 C 48.550781 34.039062 48.28125 33.898438 48.027344 33.734375 C 47.769531 33.570312 47.535156 33.382812 47.316406 33.175781 C 47.097656 32.964844 46.902344 32.734375 46.726562 32.488281 C 46.550781 32.242188 46.402344 31.980469 46.28125 31.703125 C 46.15625 31.425781 46.0625 31.140625 45.992188 30.847656 C 45.925781 30.554688 45.886719 30.253906 45.875 29.953125 Z M 53.648438 29.953125 L 53.648438 29.929688 C 53.660156 29.515625 53.59375 29.113281 53.445312 28.726562 C 53.296875 28.339844 53.078125 27.992188 52.789062 27.691406 C 52.5 27.394531 52.164062 27.160156 51.78125 26.992188 C 51.398438 26.828125 51 26.742188 50.582031 26.734375 C 50.167969 26.738281 49.765625 26.820312 49.386719 26.980469 C 49.003906 27.144531 48.667969 27.375 48.378906 27.675781 C 48.09375 27.972656 47.875 28.316406 47.730469 28.703125 C 47.585938 29.089844 47.519531 29.492188 47.539062 29.902344 L 47.539062 29.929688 C 47.523438 30.347656 47.589844 30.746094 47.738281 31.136719 C 47.886719 31.523438 48.105469 31.867188 48.398438 32.167969 C 48.6875 32.464844 49.023438 32.695312 49.40625 32.859375 C 49.789062 33.023438 50.191406 33.105469 50.609375 33.109375 C 51.023438 33.109375 51.421875 33.027344 51.804688 32.867188 C 52.1875 32.707031 52.519531 32.476562 52.808594 32.179688 C 53.09375 31.878906 53.3125 31.539062 53.457031 31.152344 C 53.605469 30.765625 53.667969 30.363281 53.648438 29.953125 Z M 53.648438 29.953125 " fill-opacity="1" fill-rule="nonzero"/><path fill="#000000" d="M 58.972656 25.441406 L 62.992188 25.441406 C 63.980469 25.382812 64.847656 25.679688 65.597656 26.324219 C 66.117188 26.871094 66.367188 27.519531 66.34375 28.273438 L 66.34375 28.300781 C 66.355469 28.617188 66.308594 28.921875 66.210938 29.222656 C 66.113281 29.523438 65.964844 29.796875 65.769531 30.046875 C 65.574219 30.292969 65.339844 30.5 65.070312 30.667969 C 64.800781 30.835938 64.511719 30.953125 64.203125 31.019531 L 66.640625 34.417969 L 64.757812 34.417969 L 62.535156 31.289062 L 60.566406 31.289062 L 60.566406 34.417969 L 58.984375 34.417969 Z M 62.875 29.890625 C 64.011719 29.890625 64.730469 29.300781 64.730469 28.386719 L 64.730469 28.367188 C 64.730469 27.402344 64.039062 26.878906 62.863281 26.878906 L 60.566406 26.878906 L 60.566406 29.890625 Z M 62.875 29.890625 " fill-opacity="1" fill-rule="nonzero"/><path fill="#000000" d="M 69.417969 33.109375 L 70.375 31.980469 C 71.167969 32.75 72.117188 33.140625 73.222656 33.160156 C 74.203125 33.160156 74.820312 32.71875 74.820312 32.03125 C 74.820312 31.390625 74.460938 31.039062 72.785156 30.65625 C 70.863281 30.214844 69.78125 29.628906 69.78125 27.976562 L 69.78125 27.949219 C 69.78125 26.414062 71.070312 25.347656 72.863281 25.347656 C 74.082031 25.316406 75.167969 25.683594 76.121094 26.441406 L 75.265625 27.632812 C 74.554688 27.050781 73.738281 26.742188 72.816406 26.710938 C 71.890625 26.710938 71.347656 27.1875 71.347656 27.773438 L 71.347656 27.800781 C 71.347656 28.496094 71.761719 28.800781 73.503906 29.210938 C 75.410156 29.652344 76.390625 30.351562 76.390625 31.839844 L 76.390625 31.867188 C 76.390625 33.546875 75.058594 34.542969 73.164062 34.542969 C 71.730469 34.542969 70.480469 34.066406 69.417969 33.109375 Z M 69.417969 33.109375 " fill-opacity="1" fill-rule="nonzero"/><path fill="#000000" d="M 83.015625 25.378906 L 84.488281 25.378906 L 88.453125 34.417969 L 86.785156 34.417969 L 85.867188 32.25 L 81.601562 32.25 L 80.675781 34.417969 L 79.050781 34.417969 Z M 85.285156 30.851562 L 83.726562 27.261719 L 82.179688 30.851562 Z M 85.285156 30.851562 " fill-opacity="1" fill-rule="nonzero"/><path fill="#000000" d="M 91.832031 25.441406 L 93.414062 25.441406 L 93.414062 34.417969 L 91.832031 34.417969 Z M 91.832031 25.441406 " fill-opacity="1" fill-rule="nonzero"/><path fill="#000000" d="M 97.5625 25.441406 L 101.585938 25.441406 C 102.574219 25.382812 103.441406 25.679688 104.191406 26.324219 C 104.707031 26.867188 104.953125 27.511719 104.9375 28.261719 L 104.9375 28.300781 C 104.945312 28.617188 104.902344 28.925781 104.800781 29.226562 C 104.703125 29.527344 104.554688 29.800781 104.355469 30.050781 C 104.160156 30.296875 103.925781 30.503906 103.65625 30.671875 C 103.382812 30.839844 103.09375 30.953125 102.78125 31.019531 L 105.214844 34.417969 L 103.332031 34.417969 L 101.109375 31.289062 L 99.125 31.289062 L 99.125 34.417969 L 97.539062 34.417969 Z M 101.46875 29.890625 C 102.601562 29.890625 103.328125 29.300781 103.328125 28.386719 L 103.328125 28.367188 C 103.328125 27.402344 102.628906 26.878906 101.457031 26.878906 L 99.152344 26.878906 L 99.152344 29.890625 Z M 101.46875 29.890625 " fill-opacity="1" fill-rule="nonzero"/><g clip-path="url(#4cfc0e53c9)"><path fill="#000000" d="M 19.894531 18.355469 C 19.894531 18.355469 21.8125 22.234375 21.464844 23.851562 C 21.464844 23.851562 26.472656 25.457031 27.027344 28.113281 C 27.027344 28.113281 29.769531 24.527344 19.894531 18.355469 Z M 19.894531 18.355469 " fill-opacity="1" fill-rule="nonzero"/></g><path fill="#000000" d="M 17.964844 24.171875 C 18.402344 25.222656 18.734375 26.304688 18.960938 27.417969 L 16.132812 26.351562 C 16.394531 24.628906 14.710938 22.007812 14.710938 22.007812 Z M 17.964844 24.171875 " fill-opacity="1" fill-rule="nonzero"/><path fill="#000000" d="M 12.902344 26.84375 C 13.257812 27.75 13.546875 28.675781 13.765625 29.625 L 11.191406 28.988281 C 11.457031 27.265625 9.820312 25.179688 9.820312 25.179688 Z M 12.902344 26.84375 " fill-opacity="1" fill-rule="nonzero"/><g clip-path="url(#fea4b3aded)"><path fill="#000000" d="M 18.507812 22.695312 C 18.507812 22.695312 29.992188 30.71875 30.746094 33.828125 C 31.320312 36.171875 29.65625 38.332031 29.65625 38.332031 C 29.65625 38.332031 28.769531 32.222656 6.769531 41.5 C 7.90625 40.28125 8.746094 38.882812 9.285156 37.3125 C 9.828125 35.738281 10.027344 34.125 9.878906 32.46875 C 9.753906 31.09375 9.394531 29.789062 8.800781 28.542969 L 13.953125 31.265625 C 13.953125 31.34375 13.953125 31.425781 13.976562 31.507812 C 14.171875 33.527344 14.023438 35.519531 13.53125 37.488281 C 14.648438 35.164062 15.085938 32.71875 14.84375 30.152344 C 14.710938 28.601562 14.332031 27.117188 13.703125 25.691406 L 19.214844 29.347656 C 19.238281 29.527344 19.25 29.710938 19.269531 29.894531 C 19.488281 32.125 19.289062 34.316406 18.671875 36.472656 C 19.25 35.410156 19.683594 34.296875 19.976562 33.125 C 20.265625 31.957031 20.40625 30.769531 20.390625 29.5625 C 20.375 28.355469 20.210938 27.171875 19.890625 26.011719 C 19.574219 24.847656 19.113281 23.742188 18.507812 22.695312 Z M 18.507812 22.695312 " fill-opacity="1" fill-rule="nonzero"/></g></svg>