<svg xmlns="http://www.w3.org/2000/svg" xmlns:xlink="http://www.w3.org/1999/xlink" width="150" zoomAndPan="magnify" viewBox="0 0 112.5 60" height="80" preserveAspectRatio="xMidYMid meet" version="1.0"><defs><clipPath id="f8104f2d02"><path d="M 7 11 L 98 11 L 98 49.898438 L 7 49.898438 Z M 7 11 " clip-rule="nonzero"/></clipPath></defs><path fill="#0068b5" d="M 7.285156 11.640625 L 14.375 11.640625 L 14.375 18.777344 L 7.285156 18.777344 Z M 7.285156 11.640625 " fill-opacity="1" fill-rule="nonzero"/><g clip-path="url(#f8104f2d02)"><path fill="#000000" d="M 14.199219 48.804688 L 14.199219 23.117188 L 7.484375 23.117188 L 7.484375 48.804688 Z M 58.828125 49.058594 L 58.828125 42.761719 C 57.84375 42.761719 57.011719 42.710938 56.40625 42.609375 C 55.699219 42.507812 55.167969 42.257812 54.816406 41.902344 C 54.460938 41.546875 54.234375 41.039062 54.109375 40.378906 C 54.007812 39.742188 53.957031 38.90625 53.957031 37.890625 L 53.957031 28.902344 L 58.828125 28.902344 L 58.828125 23.117188 L 53.957031 23.117188 L 53.957031 13.089844 L 47.21875 13.089844 L 47.21875 37.941406 C 47.21875 40.046875 47.394531 41.824219 47.746094 43.246094 C 48.101562 44.640625 48.707031 45.785156 49.539062 46.648438 C 50.371094 47.511719 51.484375 48.121094 52.820312 48.5 C 54.183594 48.882812 55.898438 49.058594 57.945312 49.058594 Z M 97.398438 48.804688 L 97.398438 11.109375 L 90.660156 11.109375 L 90.660156 48.804688 Z M 40.730469 25.628906 C 38.863281 23.597656 36.238281 22.582031 32.90625 22.582031 C 31.289062 22.582031 29.824219 22.914062 28.488281 23.574219 C 27.175781 24.234375 26.039062 25.148438 25.15625 26.316406 L 24.777344 26.796875 L 24.777344 23.117188 L 18.136719 23.117188 L 18.136719 48.804688 L 24.828125 48.804688 L 24.828125 35.121094 L 24.828125 36.0625 C 24.828125 35.910156 24.828125 35.757812 24.828125 35.605469 C 24.902344 33.195312 25.484375 31.417969 26.59375 30.273438 C 27.78125 29.054688 29.21875 28.445312 30.859375 28.445312 C 32.804688 28.445312 34.292969 29.054688 35.277344 30.222656 C 36.238281 31.390625 36.742188 33.042969 36.742188 35.148438 L 36.742188 48.78125 L 43.53125 48.78125 L 43.53125 34.210938 C 43.558594 30.554688 42.597656 27.660156 40.730469 25.628906 Z M 87.175781 35.910156 C 87.175781 34.058594 86.847656 32.332031 86.214844 30.707031 C 85.558594 29.105469 84.652344 27.683594 83.515625 26.46875 C 82.355469 25.25 80.964844 24.308594 79.351562 23.625 C 77.734375 22.9375 75.941406 22.609375 74 22.609375 C 72.15625 22.609375 70.414062 22.964844 68.800781 23.648438 C 67.183594 24.359375 65.769531 25.300781 64.582031 26.492188 C 63.398438 27.683594 62.4375 29.105469 61.757812 30.730469 C 61.050781 32.355469 60.722656 34.109375 60.722656 35.960938 C 60.722656 37.8125 61.050781 39.566406 61.707031 41.191406 C 62.363281 42.8125 63.296875 44.234375 64.457031 45.429688 C 65.617188 46.621094 67.058594 47.585938 68.722656 48.273438 C 70.390625 48.984375 72.230469 49.339844 74.199219 49.339844 C 79.90625 49.339844 83.4375 46.722656 85.558594 44.285156 L 80.714844 40.582031 C 79.703125 41.800781 77.28125 43.449219 74.25 43.449219 C 72.359375 43.449219 70.792969 43.015625 69.605469 42.128906 C 68.421875 41.265625 67.613281 40.046875 67.183594 38.550781 L 67.109375 38.320312 L 87.175781 38.320312 Z M 67.15625 33.550781 C 67.15625 31.671875 69.304688 28.394531 73.921875 28.371094 C 78.542969 28.371094 80.714844 31.644531 80.714844 33.523438 Z M 67.15625 33.550781 " fill-opacity="1" fill-rule="nonzero"/></g><path fill="#000000" d="M 105.070312 45.453125 C 104.945312 45.148438 104.769531 44.894531 104.542969 44.667969 C 104.316406 44.4375 104.0625 44.261719 103.757812 44.132812 C 103.457031 44.007812 103.128906 43.929688 102.800781 43.929688 C 102.445312 43.929688 102.144531 44.007812 101.839844 44.132812 C 101.539062 44.261719 101.285156 44.4375 101.058594 44.667969 C 100.832031 44.894531 100.65625 45.148438 100.527344 45.453125 C 100.402344 45.757812 100.328125 46.089844 100.328125 46.417969 C 100.328125 46.773438 100.402344 47.078125 100.527344 47.382812 C 100.65625 47.6875 100.832031 47.941406 101.058594 48.171875 C 101.285156 48.398438 101.539062 48.578125 101.839844 48.703125 C 102.144531 48.832031 102.472656 48.90625 102.800781 48.90625 C 103.152344 48.90625 103.457031 48.832031 103.757812 48.703125 C 104.0625 48.578125 104.316406 48.398438 104.542969 48.171875 C 104.769531 47.941406 104.945312 47.6875 105.070312 47.382812 C 105.199219 47.078125 105.273438 46.75 105.273438 46.417969 C 105.273438 46.089844 105.199219 45.757812 105.070312 45.453125 Z M 104.667969 47.230469 C 104.566406 47.484375 104.414062 47.714844 104.238281 47.890625 C 104.0625 48.070312 103.835938 48.222656 103.582031 48.324219 C 103.328125 48.425781 103.078125 48.476562 102.773438 48.476562 C 102.496094 48.476562 102.21875 48.425781 101.96875 48.324219 C 101.714844 48.222656 101.488281 48.070312 101.3125 47.890625 C 101.132812 47.714844 100.984375 47.484375 100.882812 47.230469 C 100.78125 46.976562 100.730469 46.722656 100.730469 46.417969 C 100.730469 46.140625 100.78125 45.859375 100.882812 45.605469 C 100.984375 45.351562 101.132812 45.125 101.3125 44.945312 C 101.488281 44.769531 101.714844 44.617188 101.96875 44.515625 C 102.21875 44.414062 102.472656 44.363281 102.773438 44.363281 C 103.050781 44.363281 103.328125 44.414062 103.582031 44.515625 C 103.835938 44.617188 104.0625 44.769531 104.238281 44.945312 C 104.414062 45.125 104.566406 45.351562 104.667969 45.605469 C 104.769531 45.859375 104.820312 46.113281 104.820312 46.417969 C 104.84375 46.722656 104.769531 46.976562 104.667969 47.230469 Z M 103.253906 46.621094 C 103.457031 46.597656 103.609375 46.519531 103.734375 46.394531 C 103.859375 46.265625 103.9375 46.089844 103.9375 45.835938 C 103.9375 45.554688 103.859375 45.351562 103.683594 45.199219 C 103.53125 45.046875 103.253906 44.972656 102.925781 44.972656 L 101.816406 44.972656 L 101.816406 47.839844 L 102.34375 47.839844 L 102.34375 46.671875 L 102.722656 46.671875 L 103.429688 47.839844 L 103.988281 47.839844 Z M 102.976562 46.214844 C 102.902344 46.214844 102.824219 46.214844 102.722656 46.214844 L 102.34375 46.214844 L 102.34375 45.402344 L 102.722656 45.402344 C 102.800781 45.402344 102.875 45.402344 102.976562 45.402344 C 103.050781 45.402344 103.128906 45.429688 103.203125 45.453125 C 103.28125 45.480469 103.328125 45.53125 103.355469 45.582031 C 103.378906 45.632812 103.40625 45.707031 103.40625 45.808594 C 103.40625 45.910156 103.378906 45.988281 103.355469 46.039062 C 103.304688 46.089844 103.253906 46.140625 103.203125 46.164062 C 103.128906 46.191406 103.050781 46.214844 102.976562 46.214844 Z M 102.976562 46.214844 " fill-opacity="1" fill-rule="nonzero"/></svg>