<svg xmlns="http://www.w3.org/2000/svg" xmlns:xlink="http://www.w3.org/1999/xlink" width="150" zoomAndPan="magnify" viewBox="0 0 112.5 60" height="80" preserveAspectRatio="xMidYMid meet" version="1.0"><defs><clipPath id="c962098865"><path d="M 5.972656 13.824219 L 106.027344 13.824219 L 106.027344 45.933594 L 5.972656 45.933594 Z M 5.972656 13.824219 " clip-rule="nonzero"/></clipPath></defs><path fill="#ffffff" d="M 11.246094 17.453125 L 100.792969 17.453125 L 100.792969 42.339844 L 11.246094 42.339844 Z M 11.246094 17.453125 " fill-opacity="1" fill-rule="nonzero"/><g clip-path="url(#c962098865)"><path fill="#e60012" d="M 5.972656 45.898438 L 5.972656 13.855469 L 106.027344 13.855469 L 106.027344 45.898438 Z M 26.84375 33.9375 L 18.882812 33.9375 L 18.882812 20.585938 L 15.226562 20.585938 L 15.226562 37.140625 L 26.84375 37.140625 C 26.84375 37.140625 26.84375 33.9375 26.84375 33.9375 Z M 39.003906 26.351562 C 37.820312 24.964844 36.097656 24.21875 33.945312 24.21875 C 30.074219 24.21875 27.167969 27.101562 27.167969 30.839844 C 27.167969 34.683594 30.074219 37.460938 34.375 37.460938 C 36.742188 37.460938 39.21875 36.285156 40.292969 35.003906 L 38.035156 33.296875 C 36.527344 34.363281 35.667969 34.683594 34.375 34.683594 C 33.191406 34.683594 32.222656 34.257812 31.578125 33.617188 L 40.617188 29.878906 C 40.402344 28.488281 39.863281 27.207031 39.003906 26.351562 Z M 54.816406 29.238281 C 54.816406 26.351562 52.664062 24.21875 49.652344 24.21875 C 48.148438 24.21875 46.535156 24.859375 45.457031 26.246094 L 45.457031 24.429688 L 41.90625 24.429688 L 41.90625 37.140625 L 45.457031 37.140625 L 45.457031 29.878906 C 45.457031 28.597656 46.425781 27.207031 48.363281 27.207031 C 49.867188 27.207031 51.375 28.167969 51.375 29.878906 L 51.375 37.140625 L 54.925781 37.140625 L 54.925781 29.238281 Z M 63.101562 24.21875 C 59.230469 24.21875 56.214844 27.101562 56.214844 30.839844 C 56.214844 34.578125 59.230469 37.460938 63.101562 37.460938 C 66.976562 37.460938 69.988281 34.578125 69.988281 30.839844 C 69.988281 27.101562 66.976562 24.21875 63.101562 24.21875 Z M 79.777344 24.429688 L 76.550781 33.082031 L 73.324219 24.429688 L 69.449219 24.429688 L 74.722656 37.140625 L 78.59375 37.140625 L 83.867188 24.429688 Z M 90.214844 24.21875 C 86.339844 24.21875 83.328125 27.101562 83.328125 30.839844 C 83.328125 34.578125 86.339844 37.460938 90.214844 37.460938 C 94.085938 37.460938 97.097656 34.578125 97.097656 30.839844 C 97.097656 27.101562 94.085938 24.21875 90.214844 24.21875 Z M 90.214844 34.363281 C 88.277344 34.363281 86.769531 32.761719 86.769531 30.734375 C 86.769531 28.597656 88.167969 27.101562 90.214844 27.101562 C 92.148438 27.101562 93.65625 28.703125 93.65625 30.734375 C 93.65625 32.867188 92.148438 34.363281 90.214844 34.363281 Z M 63.101562 34.363281 C 61.164062 34.363281 59.660156 32.761719 59.660156 30.734375 C 59.660156 28.597656 61.058594 27.101562 63.101562 27.101562 C 65.039062 27.101562 66.542969 28.703125 66.542969 30.734375 C 66.542969 32.867188 65.039062 34.363281 63.101562 34.363281 Z M 31.363281 28.277344 C 32.007812 27.527344 32.871094 26.996094 34.054688 26.996094 C 35.34375 26.996094 36.3125 27.742188 36.742188 28.808594 L 30.609375 31.375 C 30.394531 29.984375 30.824219 29.023438 31.363281 28.277344 Z M 31.363281 28.277344 " fill-opacity="1" fill-rule="nonzero"/></g></svg>