<svg xmlns="http://www.w3.org/2000/svg" xmlns:xlink="http://www.w3.org/1999/xlink" width="150" zoomAndPan="magnify" viewBox="0 0 112.5 60" height="80" preserveAspectRatio="xMidYMid meet" version="1.0"><defs><clipPath id="9db0c34ef0"><path d="M 0 0.132812 L 112.003906 0.132812 L 112.003906 59.867188 L 0 59.867188 Z M 0 0.132812 " clip-rule="nonzero"/></clipPath><clipPath id="0347cc6f6e"><path d="M 28 37 L 45 37 L 45 45.40625 L 28 45.40625 Z M 28 37 " clip-rule="nonzero"/></clipPath><clipPath id="601b72c25c"><path d="M 45 14.792969 L 51 14.792969 L 51 20 L 45 20 Z M 45 14.792969 " clip-rule="nonzero"/></clipPath></defs><g clip-path="url(#9db0c34ef0)"><path fill="#ffffff" d="M 0 0.132812 L 112.003906 0.132812 L 112.003906 59.867188 L 0 59.867188 Z M 0 0.132812 " fill-opacity="1" fill-rule="nonzero"/><path fill="#ffffff" d="M 0 0.132812 L 112.003906 0.132812 L 112.003906 59.867188 L 0 59.867188 Z M 0 0.132812 " fill-opacity="1" fill-rule="nonzero"/></g><path fill="#000000" d="M 6.023438 15.289062 L 9.714844 15.289062 L 9.714844 36.425781 L 6.023438 36.425781 Z M 6.023438 15.289062 " fill-opacity="1" fill-rule="nonzero"/><path fill="#000000" d="M 19.167969 21.089844 C 14.433594 21.089844 11.15625 24.75 11.15625 28.941406 C 11.15625 33.617188 14.722656 36.835938 19.203125 36.835938 C 23.457031 36.835938 27.148438 33.675781 27.148438 28.929688 C 27.148438 24.941406 24.089844 21.089844 19.167969 21.089844 Z M 19.125 24.671875 C 21.601562 24.671875 23.425781 26.613281 23.425781 28.953125 C 23.425781 31.4375 21.414062 33.25 19.191406 33.25 C 16.5625 33.25 14.910156 31.15625 14.910156 28.960938 C 14.910156 26.554688 16.777344 24.671875 19.125 24.671875 Z M 19.125 24.671875 " fill-opacity="1" fill-rule="nonzero"/><path fill="#000000" d="M 36.425781 21.089844 C 31.691406 21.089844 28.417969 24.75 28.417969 28.941406 C 28.417969 33.617188 31.980469 36.835938 36.464844 36.835938 C 40.71875 36.835938 44.410156 33.675781 44.410156 28.929688 C 44.410156 26.136719 43.207031 24.898438 43.207031 24.898438 L 44.230469 24.542969 L 44.230469 21.53125 L 38.984375 21.53125 C 38.984375 21.53125 37.847656 21.089844 36.425781 21.089844 Z M 36.382812 24.671875 C 38.859375 24.671875 40.683594 26.613281 40.683594 28.953125 C 40.683594 31.4375 38.671875 33.25 36.449219 33.25 C 33.820312 33.25 32.167969 31.15625 32.167969 28.960938 C 32.167969 26.554688 34.035156 24.671875 36.382812 24.671875 Z M 36.382812 24.671875 " fill-opacity="1" fill-rule="nonzero"/><g clip-path="url(#0347cc6f6e)"><path fill="#000000" d="M 40.65625 37.457031 C 40.65625 39.941406 38.648438 41.765625 36.421875 41.765625 C 33.796875 41.765625 32.136719 39.652344 32.136719 37.457031 L 28.390625 37.457031 C 28.390625 42.132812 31.953125 45.355469 36.4375 45.355469 C 40.691406 45.355469 44.382812 42.203125 44.382812 37.457031 Z M 40.65625 37.457031 " fill-opacity="1" fill-rule="nonzero"/></g><path fill="#000000" d="M 45.886719 21.53125 L 49.578125 21.53125 L 49.578125 36.425781 L 45.886719 36.425781 Z M 45.886719 21.53125 " fill-opacity="1" fill-rule="nonzero"/><path fill="#000000" d="M 53.164062 36.425781 L 53.164062 24.867188 L 51.183594 24.867188 L 51.183594 21.53125 L 53.164062 21.53125 L 53.164062 16.957031 L 56.855469 16.957031 L 56.855469 21.53125 L 58.890625 21.53125 L 58.890625 24.867188 L 56.855469 24.867188 L 56.855469 36.425781 Z M 53.164062 36.425781 " fill-opacity="1" fill-rule="nonzero"/><g clip-path="url(#601b72c25c)"><path fill="#000000" d="M 50.171875 17.300781 C 50.171875 18.660156 49.078125 19.757812 47.726562 19.757812 C 46.375 19.757812 45.28125 18.660156 45.28125 17.300781 C 45.28125 15.941406 46.375 14.84375 47.726562 14.84375 C 49.078125 14.84375 50.171875 15.941406 50.171875 17.300781 Z M 50.171875 17.300781 " fill-opacity="1" fill-rule="nonzero"/></g><path fill="#000000" d="M 67.191406 21.082031 C 62.433594 21.082031 59.367188 24.742188 59.367188 29.074219 C 59.367188 33.550781 62.445312 36.847656 67.269531 36.847656 C 71.765625 36.847656 73.980469 34.023438 73.980469 34.023438 L 71.511719 31.539062 C 71.511719 31.539062 69.648438 33.558594 67.316406 33.558594 C 65.371094 33.558594 63.8125 32.46875 63.273438 30.464844 L 74.777344 30.464844 L 74.777344 29.441406 C 74.777344 25.363281 72.429688 21.082031 67.191406 21.082031 Z M 67.074219 24.351562 C 68.773438 24.351562 70.515625 25.265625 70.902344 27.453125 L 63.171875 27.453125 C 63.476562 25.914062 64.8125 24.351562 67.074219 24.351562 Z M 67.074219 24.351562 " fill-opacity="1" fill-rule="nonzero"/><path fill="#000000" d="M 84.011719 36.851562 C 79.242188 36.851562 75.992188 33.195312 75.992188 28.890625 C 75.992188 24.445312 79.664062 21.078125 83.996094 21.078125 C 88.183594 21.078125 90.328125 24.050781 90.328125 24.050781 L 87.75 26.628906 C 87.75 26.628906 86.257812 24.691406 83.976562 24.691406 C 81.449219 24.691406 79.722656 26.636719 79.722656 28.945312 C 79.722656 31.386719 81.5625 33.257812 83.949219 33.257812 C 86.265625 33.257812 87.746094 31.324219 87.746094 31.324219 L 90.347656 33.898438 C 90.347656 33.898438 88.226562 36.851562 84.011719 36.851562 Z M 84.011719 36.851562 " fill-opacity="1" fill-rule="nonzero"/><path fill="#000000" d="M 91.691406 36.4375 L 91.691406 15.234375 L 95.382812 15.234375 L 95.382812 23.023438 C 95.382812 23.023438 96.796875 21.078125 99.871094 21.078125 C 103.738281 21.078125 105.980469 23.96875 105.980469 27.664062 L 105.980469 36.4375 L 102.285156 36.4375 L 102.285156 28.226562 C 102.285156 25.742188 100.75 24.710938 99.046875 24.710938 C 97.105469 24.710938 95.382812 25.824219 95.382812 28.417969 L 95.382812 36.4375 Z M 91.691406 36.4375 " fill-opacity="1" fill-rule="nonzero"/></svg>