<svg xmlns="http://www.w3.org/2000/svg" xmlns:xlink="http://www.w3.org/1999/xlink" width="150" zoomAndPan="magnify" viewBox="0 0 112.5 60" height="80" preserveAspectRatio="xMidYMid meet" version="1.0"><defs><clipPath id="b362b45179"><path d="M 58 17.472656 L 92 17.472656 L 92 42.859375 L 58 42.859375 Z M 58 17.472656 " clip-rule="nonzero"/></clipPath><clipPath id="8ac215d8d4"><path d="M 5.972656 17.472656 L 62 17.472656 L 62 42.859375 L 5.972656 42.859375 Z M 5.972656 17.472656 " clip-rule="nonzero"/></clipPath><clipPath id="07f1e514c6"><path d="M 94 17.472656 L 106.027344 17.472656 L 106.027344 23 L 94 23 Z M 94 17.472656 " clip-rule="nonzero"/></clipPath><clipPath id="e7e07e0e2b"><path d="M 87 23 L 104 23 L 104 42.859375 L 87 42.859375 Z M 87 23 " clip-rule="nonzero"/></clipPath></defs><g clip-path="url(#b362b45179)"><path fill="#000000" d="M 78.300781 17.539062 C 74.335938 17.753906 71.746094 18.484375 68.757812 20.261719 C 64.589844 22.730469 63.527344 26.9375 66.40625 29.570312 C 67.015625 30.113281 67.792969 30.578125 70.058594 31.738281 C 73.460938 33.464844 74.296875 33.96875 75.011719 34.75 C 75.523438 35.316406 75.535156 35.339844 75.488281 36.070312 C 75.425781 37.015625 74.949219 37.710938 74.074219 38.214844 C 73.058594 38.78125 72.132812 38.96875 69.945312 39.046875 C 67.167969 39.144531 64.726562 38.945312 60.25 38.289062 C 60.125 38.277344 59.886719 38.742188 59.488281 39.839844 C 59.160156 40.707031 58.886719 41.476562 58.886719 41.554688 C 58.859375 41.816406 62.625 42.382812 65.941406 42.625 C 68.570312 42.8125 73.433594 42.699219 75.234375 42.421875 C 79.800781 41.703125 84.128906 39.195312 85.394531 36.511719 C 86.496094 34.167969 86.070312 32.027344 84.191406 30.476562 C 83.730469 30.101562 82.339844 29.304688 80.515625 28.375 C 77.335938 26.75 76 25.90625 75.550781 25.238281 C 75.1875 24.695312 75.171875 23.875 75.511719 23.222656 C 76.375 21.507812 78.75 20.914062 83.730469 21.191406 C 85.855469 21.304688 88.710938 21.609375 90.273438 21.886719 L 90.710938 21.972656 L 91.261719 20.410156 C 91.5625 19.554688 91.835938 18.796875 91.863281 18.710938 C 91.9375 18.519531 91.761719 18.472656 89.960938 18.167969 C 86.757812 17.613281 81.867188 17.351562 78.300781 17.539062 Z M 78.300781 17.539062 " fill-opacity="1" fill-rule="nonzero"/></g><g clip-path="url(#8ac215d8d4)"><path fill="#000000" d="M 10.523438 30.0625 C 8.046875 36.980469 5.996094 42.675781 5.984375 42.738281 C 5.957031 42.8125 7.808594 42.863281 10.875 42.863281 L 15.804688 42.863281 L 18.21875 36.171875 C 21.070312 28.296875 21.257812 27.921875 23.558594 25.726562 C 25.183594 24.179688 26.972656 23.433594 29.101562 23.410156 C 30.339844 23.398438 30.988281 23.648438 31.378906 24.265625 C 31.578125 24.59375 31.601562 24.808594 31.550781 25.539062 C 31.503906 26.296875 31.089844 27.566406 28.625 34.359375 C 27.050781 38.71875 25.722656 42.421875 25.671875 42.574219 L 25.585938 42.863281 L 30.464844 42.863281 C 35.082031 42.863281 35.355469 42.851562 35.46875 42.636719 C 35.542969 42.511719 36.605469 39.585938 37.859375 36.136719 C 39.097656 32.695312 40.273438 29.546875 40.472656 29.15625 C 41.296875 27.503906 43.613281 25.035156 44.988281 24.34375 C 46.789062 23.433594 49.265625 23.121094 50.316406 23.675781 C 51.019531 24.050781 51.292969 24.65625 51.207031 25.589844 C 51.167969 26.082031 50.242188 28.789062 48.191406 34.460938 C 46.5625 38.945312 45.238281 42.636719 45.238281 42.675781 C 45.238281 42.710938 47.453125 42.738281 50.15625 42.738281 L 55.070312 42.738281 L 58.410156 33.601562 C 61.261719 25.804688 61.761719 24.328125 61.824219 23.546875 C 62.0625 20.699219 60.488281 18.671875 57.371094 17.828125 C 56.109375 17.488281 52.617188 17.527344 50.878906 17.902344 C 48.277344 18.457031 45.589844 19.515625 43.0625 20.976562 L 42.074219 21.546875 L 41.722656 20.8125 C 40.949219 19.164062 39.121094 18.003906 36.769531 17.664062 C 32.816406 17.097656 27.761719 18.382812 23.019531 21.179688 L 22.382812 21.546875 L 22.058594 20.8125 C 21.445312 19.492188 19.804688 18.269531 18.066406 17.855469 C 17.628906 17.753906 16.777344 17.640625 16.152344 17.589844 L 15.027344 17.511719 Z M 10.523438 30.0625 " fill-opacity="1" fill-rule="nonzero"/></g><g clip-path="url(#07f1e514c6)"><path fill="#000000" d="M 102.65625 17.675781 C 100.855469 17.804688 98.304688 18.117188 96.867188 18.394531 L 95.753906 18.609375 L 95.125 20.359375 C 94.789062 21.320312 94.539062 22.125 94.5625 22.148438 C 94.589844 22.175781 95.265625 22.085938 96.066406 21.949219 C 97.964844 21.621094 100.644531 21.34375 102.921875 21.242188 L 104.757812 21.15625 L 104.882812 20.765625 C 104.945312 20.550781 105.234375 19.730469 105.523438 18.949219 L 106.023438 17.539062 L 105.058594 17.550781 C 104.535156 17.5625 103.445312 17.625 102.65625 17.675781 Z M 102.65625 17.675781 " fill-opacity="1" fill-rule="nonzero"/></g><g clip-path="url(#e7e07e0e2b)"><path fill="#000000" d="M 101.21875 23.800781 C 98.480469 24.015625 97.179688 24.152344 95.539062 24.417969 C 94.476562 24.582031 93.585938 24.746094 93.5625 24.769531 C 93.488281 24.847656 87.144531 42.496094 87.144531 42.636719 C 87.144531 42.6875 89.359375 42.738281 92.0625 42.738281 L 96.964844 42.738281 L 100.34375 33.339844 C 102.207031 28.160156 103.746094 23.875 103.757812 23.824219 C 103.796875 23.726562 102.34375 23.699219 101.21875 23.800781 Z M 101.21875 23.800781 " fill-opacity="1" fill-rule="nonzero"/></g></svg>