<svg xmlns="http://www.w3.org/2000/svg" xmlns:xlink="http://www.w3.org/1999/xlink" width="150" zoomAndPan="magnify" viewBox="0 0 112.5 60" height="80" preserveAspectRatio="xMidYMid meet" version="1.0"><defs><clipPath id="8695de9599"><path d="M 0 0.132812 L 112.003906 0.132812 L 112.003906 59.867188 L 0 59.867188 Z M 0 0.132812 " clip-rule="nonzero"/></clipPath><clipPath id="6bf669a062"><path d="M 6 17.660156 L 106 17.660156 L 106 42.300781 L 6 42.300781 Z M 6 17.660156 " clip-rule="nonzero"/></clipPath></defs><g clip-path="url(#8695de9599)"><path fill="#ffffff" d="M 0 0.132812 L 112.003906 0.132812 L 112.003906 59.867188 L 0 59.867188 Z M 0 0.132812 " fill-opacity="1" fill-rule="nonzero"/><path fill="#ffffff" d="M 0 0.132812 L 112.003906 0.132812 L 112.003906 59.867188 L 0 59.867188 Z M 0 0.132812 " fill-opacity="1" fill-rule="nonzero"/></g><g clip-path="url(#6bf669a062)"><path fill="#000000" d="M 24.550781 32.246094 L 19.542969 24.164062 L 15.941406 24.164062 L 15.941406 35.769531 L 19.542969 35.769531 L 19.542969 27.714844 L 24.550781 35.796875 L 28.128906 35.796875 L 28.128906 24.164062 L 24.503906 24.164062 Z M 52.976562 28.082031 L 52.976562 26.925781 L 51.101562 26.925781 L 51.101562 25.347656 L 47.597656 25.347656 L 47.597656 26.925781 L 45.699219 26.925781 L 45.699219 28.082031 L 47.597656 28.082031 L 47.597656 35.796875 L 51.101562 35.796875 L 51.101562 28.082031 Z M 30.105469 35.746094 L 33.582031 35.746094 L 33.582031 28.058594 L 30.105469 28.058594 Z M 30.105469 26.554688 L 33.609375 26.554688 L 33.609375 24.164062 L 30.105469 24.164062 Z M 91.175781 27.515625 C 88.363281 27.515625 86.066406 29.460938 86.066406 31.828125 C 86.066406 34.195312 88.363281 36.140625 91.175781 36.140625 C 93.988281 36.140625 96.285156 34.195312 96.285156 31.828125 C 96.285156 29.460938 93.988281 27.515625 91.175781 27.515625 Z M 92.582031 33.480469 C 92.582031 34.710938 91.867188 35.203125 91.175781 35.203125 C 90.484375 35.203125 89.746094 34.710938 89.746094 33.480469 L 89.746094 30.226562 C 89.746094 28.996094 90.460938 28.5 91.175781 28.5 C 91.867188 28.5 92.582031 28.996094 92.582031 30.226562 Z M 81.503906 28.429688 C 80.9375 28.105469 80.34375 27.8125 79.527344 27.738281 C 77.035156 27.515625 75.085938 29.734375 75.085938 31.777344 C 75.085938 34.464844 77.160156 35.449219 77.457031 35.597656 C 78.640625 36.140625 80.144531 36.164062 81.453125 35.328125 L 81.453125 35.769531 L 84.882812 35.769531 L 84.882812 24.191406 L 81.453125 24.191406 C 81.503906 24.164062 81.503906 26.652344 81.503906 28.429688 Z M 81.550781 31.878906 L 81.550781 33.257812 C 81.550781 34.441406 80.738281 34.761719 80.171875 34.761719 C 79.601562 34.761719 78.789062 34.441406 78.789062 33.257812 L 78.789062 30.496094 C 78.789062 29.316406 79.601562 28.996094 80.171875 28.996094 C 80.714844 28.996094 81.550781 29.316406 81.550781 30.496094 Z M 41.75 27.714844 C 40.589844 27.738281 39.652344 28.253906 38.960938 28.871094 L 38.960938 28.058594 L 35.484375 28.058594 L 35.484375 35.769531 L 38.960938 35.769531 L 38.960938 30.695312 C 38.960938 30.03125 39.679688 29.289062 40.617188 29.289062 C 41.554688 29.289062 42.21875 30.054688 42.21875 30.695312 L 42.21875 35.769531 L 45.699219 35.769531 L 45.699219 31.582031 C 45.699219 28.527344 43.058594 27.640625 41.75 27.714844 Z M 70.054688 27.714844 C 69.015625 27.738281 68.03125 28.15625 67.265625 28.871094 L 67.265625 28.058594 L 63.785156 28.058594 L 63.785156 35.769531 L 67.265625 35.769531 L 67.265625 30.695312 C 67.265625 30.03125 67.980469 29.289062 68.917969 29.289062 C 69.855469 29.289062 70.523438 30.054688 70.523438 30.695312 L 70.523438 35.769531 L 74 35.769531 L 74 31.582031 C 74 28.527344 71.363281 27.640625 70.054688 27.714844 Z M 62.773438 31.925781 C 62.773438 29.535156 60.453125 27.539062 57.640625 27.539062 C 54.804688 27.539062 52.507812 29.488281 52.507812 31.851562 C 52.507812 34.242188 54.804688 36.164062 57.640625 36.164062 C 59.984375 36.164062 61.984375 34.808594 62.578125 33.011719 L 59.097656 33.011719 L 59.097656 33.480469 C 59.097656 34.882812 58.160156 35.203125 57.667969 35.203125 C 57.125 35.203125 56.1875 34.882812 56.1875 33.480469 L 56.1875 31.878906 Z M 56.457031 29.214844 C 56.730469 28.796875 57.171875 28.527344 57.667969 28.527344 C 58.136719 28.527344 58.605469 28.75 58.875 29.214844 C 59.097656 29.585938 59.097656 30.054688 59.097656 30.71875 L 56.1875 30.71875 C 56.210938 30.054688 56.234375 29.609375 56.457031 29.214844 Z M 97.640625 25.617188 C 97.640625 25.25 97.371094 25.050781 96.800781 25.050781 L 96.011719 25.050781 L 96.011719 27.023438 L 96.480469 27.023438 L 96.480469 26.210938 L 96.726562 26.210938 L 97.097656 27.023438 L 97.640625 27.023438 L 97.195312 26.136719 C 97.492188 26.0625 97.640625 25.863281 97.640625 25.617188 Z M 96.753906 25.890625 L 96.507812 25.890625 L 96.507812 25.324219 L 96.726562 25.324219 C 97 25.324219 97.171875 25.421875 97.171875 25.59375 C 97.148438 25.839844 97.023438 25.890625 96.753906 25.890625 Z M 96.777344 24.261719 C 95.816406 24.261719 95 25.078125 95 26.039062 C 95 27 95.816406 27.8125 96.777344 27.8125 C 97.738281 27.8125 98.554688 27 98.554688 26.039062 C 98.554688 25.078125 97.765625 24.261719 96.777344 24.261719 Z M 96.777344 27.492188 C 95.988281 27.492188 95.347656 26.851562 95.347656 26.0625 C 95.347656 25.273438 96.011719 24.632812 96.777344 24.632812 C 97.566406 24.632812 98.207031 25.296875 98.207031 26.0625 C 98.207031 26.824219 97.566406 27.492188 96.777344 27.492188 Z M 92.855469 17.660156 L 19.074219 17.660156 C 11.253906 17.636719 6.019531 23.253906 6.019531 30.003906 C 6.019531 36.730469 11.253906 42.300781 19.097656 42.300781 L 92.902344 42.300781 C 100.75 42.300781 105.980469 36.730469 105.980469 30.003906 C 105.933594 23.277344 100.675781 17.660156 92.855469 17.660156 Z M 92.828125 39.292969 L 19.097656 39.292969 C 12.878906 39.320312 9.082031 35.128906 9.082031 30.003906 C 9.082031 24.878906 12.90625 20.738281 19.097656 20.714844 L 92.828125 20.714844 C 99.023438 20.714844 102.847656 24.878906 102.847656 30.003906 C 102.847656 35.128906 99.046875 39.292969 92.828125 39.292969 Z M 92.828125 39.292969 " fill-opacity="1" fill-rule="nonzero"/></g></svg>