<svg xmlns="http://www.w3.org/2000/svg" xmlns:xlink="http://www.w3.org/1999/xlink" width="150" zoomAndPan="magnify" viewBox="0 0 112.5 60" height="80" preserveAspectRatio="xMidYMid meet" version="1.0"><defs><clipPath id="7572992e62"><path d="M 23.4375 4.660156 L 88.398438 4.660156 L 88.398438 55.433594 L 23.4375 55.433594 Z M 23.4375 4.660156 " clip-rule="nonzero"/></clipPath></defs><g clip-path="url(#7572992e62)"><path fill="#0070d1" d="M 24.738281 41.585938 C 22.277344 43.238281 23.097656 46.328125 28.292969 47.769531 C 33.625 49.554688 39.507812 50.039062 45.183594 49.074219 C 45.523438 49.074219 45.796875 48.9375 46.003906 48.9375 L 46.003906 43.375 L 40.464844 45.160156 C 38.34375 45.777344 36.226562 45.984375 34.105469 45.503906 C 32.464844 45.023438 32.804688 44.0625 34.722656 43.238281 L 46.003906 39.320312 L 46.003906 33.277344 L 30.414062 38.632812 C 28.5 39.320312 26.515625 40.28125 24.738281 41.585938 Z M 62.414062 17.132812 L 62.414062 32.933594 C 69.046875 36.160156 74.246094 32.933594 74.246094 24.484375 C 74.246094 15.828125 71.167969 11.910156 62.210938 8.820312 C 57.492188 7.171875 52.636719 5.730469 47.78125 4.769531 L 47.78125 51.890625 L 59.132812 55.328125 L 59.132812 15.691406 C 59.132812 13.902344 59.132812 12.597656 60.433594 13.078125 C 62.210938 13.5625 62.414062 15.347656 62.414062 17.132812 Z M 83.476562 37.878906 C 78.757812 36.230469 73.765625 35.613281 68.84375 36.09375 C 66.246094 36.230469 63.78125 36.917969 61.527344 37.742188 L 61.046875 37.878906 L 61.046875 44.265625 L 71.578125 40.351562 C 73.699219 39.734375 75.816406 39.527344 77.9375 40.007812 C 79.578125 40.488281 79.238281 41.449219 77.320312 42.273438 L 61.117188 48.320312 L 61.117188 54.503906 L 83.476562 46.191406 C 85.117188 45.570312 86.554688 44.746094 87.851562 43.441406 C 89.015625 41.792969 88.535156 39.457031 83.476562 37.878906 Z M 83.476562 37.878906 " fill-opacity="1" fill-rule="nonzero"/></g></svg>