<svg xmlns="http://www.w3.org/2000/svg" xmlns:xlink="http://www.w3.org/1999/xlink" width="150" zoomAndPan="magnify" viewBox="0 0 112.5 60" height="80" preserveAspectRatio="xMidYMid meet" version="1.0"><defs><clipPath id="2aed2c9a93"><path d="M 0 0.132812 L 112.003906 0.132812 L 112.003906 59.867188 L 0 59.867188 Z M 0 0.132812 " clip-rule="nonzero"/></clipPath><clipPath id="a586eaed1e"><path d="M 69 22.101562 L 81 22.101562 L 81 25 L 69 25 Z M 69 22.101562 " clip-rule="nonzero"/></clipPath><clipPath id="92c1c63ba1"><path d="M 69 35 L 81 35 L 81 37.78125 L 69 37.78125 Z M 69 35 " clip-rule="nonzero"/></clipPath><clipPath id="691f73e4f4"><path d="M 90 22.101562 L 102 22.101562 L 102 37.78125 L 90 37.78125 Z M 90 22.101562 " clip-rule="nonzero"/></clipPath><clipPath id="416034de39"><path d="M 6 22.101562 L 17 22.101562 L 17 37.78125 L 6 37.78125 Z M 6 22.101562 " clip-rule="nonzero"/></clipPath><clipPath id="619885a29a"><path d="M 26 22.101562 L 39 22.101562 L 39 37.78125 L 26 37.78125 Z M 26 22.101562 " clip-rule="nonzero"/></clipPath><clipPath id="e80ba94d35"><path d="M 102 22.101562 L 104 22.101562 L 104 24 L 102 24 Z M 102 22.101562 " clip-rule="nonzero"/></clipPath><clipPath id="7f8bf05fd8"><path d="M 104 22.101562 L 106 22.101562 L 106 24 L 104 24 Z M 104 22.101562 " clip-rule="nonzero"/></clipPath><clipPath id="1bac2f2d81"><path d="M 48 22.101562 L 60 22.101562 L 60 37.78125 L 48 37.78125 Z M 48 22.101562 " clip-rule="nonzero"/></clipPath><clipPath id="fd7d17051d"><path d="M 69 22.101562 L 81 22.101562 L 81 25 L 69 25 Z M 69 22.101562 " clip-rule="nonzero"/></clipPath><clipPath id="7255fcebfa"><path d="M 69 35 L 81 35 L 81 37.78125 L 69 37.78125 Z M 69 35 " clip-rule="nonzero"/></clipPath><clipPath id="0318b7bbca"><path d="M 26 22.101562 L 39 22.101562 L 39 37.78125 L 26 37.78125 Z M 26 22.101562 " clip-rule="nonzero"/></clipPath></defs><g clip-path="url(#2aed2c9a93)"><path fill="#ffffff" d="M 0 0.132812 L 112.003906 0.132812 L 112.003906 59.867188 L 0 59.867188 Z M 0 0.132812 " fill-opacity="1" fill-rule="nonzero"/><path fill="#ffffff" d="M 0 0.132812 L 112.003906 0.132812 L 112.003906 59.867188 L 0 59.867188 Z M 0 0.132812 " fill-opacity="1" fill-rule="nonzero"/></g><g clip-path="url(#a586eaed1e)"><path fill="#00ff00" d="M 69.753906 22.429688 L 69.753906 24.082031 L 79.386719 24.082031 L 80.34375 22.429688 Z M 69.753906 22.429688 " fill-opacity="1" fill-rule="nonzero"/></g><path fill="#00ff00" d="M 69.753906 29.113281 L 69.753906 30.765625 L 79.386719 30.765625 L 80.34375 29.113281 Z M 69.753906 29.113281 " fill-opacity="1" fill-rule="nonzero"/><g clip-path="url(#92c1c63ba1)"><path fill="#00ff00" d="M 69.753906 35.792969 L 69.753906 37.445312 L 79.386719 37.445312 L 80.34375 35.792969 Z M 69.753906 35.792969 " fill-opacity="1" fill-rule="nonzero"/></g><g clip-path="url(#691f73e4f4)"><path fill="#00ff00" d="M 101.527344 27.082031 L 101.527344 26.128906 C 101.527344 25.640625 101.433594 25.167969 101.246094 24.714844 C 101.054688 24.261719 100.785156 23.859375 100.4375 23.511719 C 100.085938 23.167969 99.683594 22.898438 99.226562 22.710938 C 98.769531 22.523438 98.296875 22.429688 97.800781 22.429688 L 90.933594 22.429688 L 90.933594 37.449219 L 92.601562 37.449219 L 92.601562 30.78125 L 95.71875 30.78125 L 99.605469 37.449219 L 101.523438 37.449219 L 97.636719 30.78125 L 97.796875 30.78125 C 98.289062 30.785156 98.765625 30.691406 99.222656 30.503906 C 99.679688 30.316406 100.085938 30.046875 100.433594 29.699219 C 100.785156 29.355469 101.054688 28.953125 101.246094 28.5 C 101.433594 28.046875 101.527344 27.574219 101.527344 27.082031 Z M 92.601562 24.082031 L 97.800781 24.082031 C 98.074219 24.082031 98.335938 24.136719 98.589844 24.238281 C 98.84375 24.34375 99.066406 24.492188 99.257812 24.683594 C 99.453125 24.875 99.601562 25.097656 99.707031 25.347656 C 99.8125 25.597656 99.863281 25.859375 99.863281 26.128906 L 99.863281 27.082031 C 99.863281 27.355469 99.8125 27.613281 99.707031 27.867188 C 99.601562 28.117188 99.453125 28.335938 99.257812 28.527344 C 99.066406 28.722656 98.84375 28.867188 98.589844 28.972656 C 98.335938 29.078125 98.074219 29.128906 97.800781 29.128906 L 92.601562 29.128906 Z M 92.601562 24.082031 " fill-opacity="1" fill-rule="nonzero"/></g><g clip-path="url(#416034de39)"><path fill="#00ff00" d="M 16.808594 27.082031 L 16.808594 26.128906 C 16.808594 25.640625 16.710938 25.167969 16.523438 24.714844 C 16.335938 24.261719 16.066406 23.859375 15.714844 23.511719 C 15.367188 23.167969 14.960938 22.898438 14.507812 22.710938 C 14.050781 22.523438 13.574219 22.429688 13.078125 22.429688 L 6.214844 22.429688 L 6.214844 37.449219 L 7.878906 37.449219 L 7.878906 30.78125 L 11.011719 30.78125 L 14.898438 37.449219 L 16.816406 37.449219 L 12.929688 30.78125 L 13.089844 30.78125 C 13.582031 30.78125 14.058594 30.6875 14.511719 30.5 C 14.96875 30.308594 15.371094 30.042969 15.71875 29.695312 C 16.066406 29.347656 16.335938 28.949219 16.523438 28.496094 C 16.714844 28.042969 16.808594 27.570312 16.808594 27.082031 Z M 7.878906 24.082031 L 13.078125 24.082031 C 13.351562 24.082031 13.617188 24.136719 13.867188 24.238281 C 14.121094 24.34375 14.34375 24.492188 14.535156 24.683594 C 14.730469 24.875 14.878906 25.097656 14.984375 25.347656 C 15.089844 25.597656 15.140625 25.859375 15.140625 26.128906 L 15.140625 27.082031 C 15.140625 27.355469 15.089844 27.613281 14.984375 27.867188 C 14.878906 28.117188 14.730469 28.335938 14.535156 28.527344 C 14.34375 28.722656 14.121094 28.867188 13.867188 28.972656 C 13.617188 29.078125 13.351562 29.128906 13.078125 29.128906 L 7.878906 29.128906 Z M 7.878906 24.082031 " fill-opacity="1" fill-rule="nonzero"/></g><g clip-path="url(#619885a29a)"><path fill="#00ff00" d="M 32.664062 26.839844 L 36.980469 37.445312 L 38.777344 37.445312 L 33.5625 24.632812 L 32.664062 22.429688 L 31.765625 24.632812 L 26.550781 37.445312 L 28.34375 37.445312 Z M 32.664062 26.839844 " fill-opacity="1" fill-rule="nonzero"/></g><g clip-path="url(#e80ba94d35)"><path fill="#00ff00" d="M 102.859375 22.429688 L 103.917969 22.429688 L 103.917969 22.640625 L 103.511719 22.640625 L 103.511719 23.886719 L 103.269531 23.886719 L 103.269531 22.640625 L 102.859375 22.640625 Z M 102.859375 22.429688 " fill-opacity="1" fill-rule="nonzero"/></g><g clip-path="url(#7f8bf05fd8)"><path fill="#00ff00" d="M 104.324219 22.433594 L 104.734375 22.433594 L 105.050781 23.574219 L 105.375 22.433594 L 105.789062 22.433594 L 105.789062 23.886719 L 105.554688 23.886719 L 105.554688 22.691406 L 105.53125 22.691406 L 105.183594 23.828125 L 104.941406 23.828125 L 104.570312 22.691406 L 104.570312 23.886719 L 104.335938 23.886719 Z M 104.324219 22.433594 " fill-opacity="1" fill-rule="nonzero"/></g><g clip-path="url(#1bac2f2d81)"><path fill="#00ff00" d="M 48.574219 22.429688 L 48.574219 24.082031 L 56.351562 24.082031 L 49.539062 35.792969 L 48.574219 37.445312 L 58.265625 37.445312 L 59.222656 35.792969 L 51.457031 35.792969 L 58.269531 24.082031 L 59.230469 22.429688 Z M 48.574219 22.429688 " fill-opacity="1" fill-rule="nonzero"/></g><g clip-path="url(#fd7d17051d)"><path fill="#00ff00" d="M 69.753906 22.429688 L 69.753906 24.082031 L 79.386719 24.082031 L 80.34375 22.429688 Z M 69.753906 22.429688 " fill-opacity="1" fill-rule="nonzero"/></g><path fill="#00ff00" d="M 69.753906 29.113281 L 69.753906 30.765625 L 79.386719 30.765625 L 80.34375 29.113281 Z M 69.753906 29.113281 " fill-opacity="1" fill-rule="nonzero"/><g clip-path="url(#7255fcebfa)"><path fill="#00ff00" d="M 69.753906 35.792969 L 69.753906 37.445312 L 79.386719 37.445312 L 80.34375 35.792969 Z M 69.753906 35.792969 " fill-opacity="1" fill-rule="nonzero"/></g><g clip-path="url(#0318b7bbca)"><path fill="#00ff00" d="M 32.664062 26.839844 L 36.980469 37.445312 L 38.777344 37.445312 L 33.5625 24.632812 L 32.664062 22.429688 L 31.765625 24.632812 L 26.550781 37.445312 L 28.34375 37.445312 Z M 32.664062 26.839844 " fill-opacity="1" fill-rule="nonzero"/></g></svg>