<svg xmlns="http://www.w3.org/2000/svg" xmlns:xlink="http://www.w3.org/1999/xlink" width="150" zoomAndPan="magnify" viewBox="0 0 112.5 60" height="80" preserveAspectRatio="xMidYMid meet" version="1.0"><defs><clipPath id="49b6d65bdb"><path d="M 6 22.449219 L 106 22.449219 L 106 37.382812 L 6 37.382812 Z M 6 22.449219 " clip-rule="nonzero"/></clipPath></defs><g clip-path="url(#49b6d65bdb)"><path fill="#1428a0" d="M 10.4375 26.496094 C 10.367188 26.210938 10.382812 25.925781 10.421875 25.761719 C 10.511719 25.316406 10.820312 24.832031 11.707031 24.832031 C 12.539062 24.832031 13.007812 25.332031 13.007812 26.101562 C 13.007812 26.355469 13.007812 26.960938 13.007812 26.960938 L 16.519531 26.960938 L 16.519531 25.976562 C 16.539062 22.933594 13.769531 22.449219 11.777344 22.449219 C 9.28125 22.449219 7.234375 23.273438 6.855469 25.546875 C 6.746094 26.175781 6.726562 26.730469 6.890625 27.429688 C 7.507812 30.273438 12.519531 31.097656 13.246094 32.90625 C 13.390625 33.246094 13.335938 33.675781 13.28125 33.945312 C 13.171875 34.410156 12.847656 34.894531 11.90625 34.894531 C 11.019531 34.894531 10.492188 34.394531 10.492188 33.625 L 10.492188 32.28125 L 6.691406 32.28125 L 6.691406 33.355469 C 6.691406 36.472656 9.171875 37.402344 11.8125 37.402344 C 14.367188 37.402344 16.449219 36.542969 16.792969 34.214844 C 16.957031 33.015625 16.828125 32.226562 16.773438 31.941406 C 16.195312 28.984375 10.835938 28.125 10.4375 26.496094 Z M 56.289062 26.515625 C 56.238281 26.246094 56.253906 25.941406 56.273438 25.796875 C 56.382812 25.351562 56.671875 24.867188 57.558594 24.867188 C 58.371094 24.867188 58.84375 25.367188 58.84375 26.121094 C 58.84375 26.371094 58.84375 26.980469 58.84375 26.980469 L 62.320312 26.980469 L 62.320312 26.015625 C 62.320312 23.003906 59.601562 22.539062 57.628906 22.539062 C 55.148438 22.539062 53.121094 23.34375 52.742188 25.601562 C 52.652344 26.210938 52.617188 26.765625 52.777344 27.464844 C 53.375 30.273438 58.335938 31.097656 59.058594 32.890625 C 59.1875 33.230469 59.152344 33.660156 59.078125 33.910156 C 58.96875 34.375 58.660156 34.839844 57.722656 34.839844 C 56.851562 34.839844 56.308594 34.339844 56.308594 33.589844 L 56.308594 32.246094 L 52.5625 32.246094 L 52.5625 33.300781 C 52.5625 36.382812 55.003906 37.3125 57.628906 37.3125 C 60.144531 37.3125 62.226562 36.453125 62.554688 34.160156 C 62.71875 32.960938 62.589844 32.191406 62.535156 31.90625 C 61.976562 29.003906 56.6875 28.144531 56.289062 26.515625 Z M 88.292969 34.125 L 84.980469 22.898438 L 79.75 22.898438 L 79.75 36.703125 L 83.207031 36.703125 L 83.007812 25.117188 L 86.574219 36.703125 L 91.589844 36.703125 L 91.589844 22.898438 L 88.113281 22.898438 Z M 21.789062 22.898438 L 19.164062 36.847656 L 22.964844 36.847656 L 24.9375 23.9375 L 26.855469 36.847656 L 30.640625 36.847656 L 28.050781 22.898438 Z M 43.078125 22.898438 L 41.300781 33.804688 L 39.527344 22.898438 L 33.773438 22.898438 L 33.464844 36.847656 L 36.992188 36.847656 L 37.085938 23.9375 L 39.511719 36.847656 L 43.078125 36.847656 L 45.503906 23.9375 L 45.59375 36.847656 L 49.121094 36.847656 L 48.816406 22.898438 Z M 75.839844 22.898438 L 72.273438 22.898438 L 72.273438 33.210938 C 72.273438 33.390625 72.273438 33.589844 72.238281 33.75 C 72.167969 34.089844 71.875 34.769531 70.878906 34.769531 C 69.902344 34.769531 69.613281 34.105469 69.542969 33.75 C 69.503906 33.605469 69.503906 33.390625 69.503906 33.210938 L 69.503906 22.898438 L 65.9375 22.898438 L 65.9375 32.890625 C 65.9375 33.140625 65.957031 33.675781 65.976562 33.804688 C 66.230469 36.398438 68.292969 37.257812 70.878906 37.257812 C 73.46875 37.257812 75.550781 36.417969 75.804688 33.804688 C 75.824219 33.660156 75.859375 33.140625 75.839844 32.890625 Z M 100.316406 29.003906 L 100.316406 31.046875 L 101.761719 31.046875 L 101.761719 33.070312 C 101.761719 33.246094 101.761719 33.445312 101.726562 33.605469 C 101.671875 33.980469 101.308594 34.625 100.277344 34.625 C 99.265625 34.625 98.902344 33.980469 98.847656 33.605469 C 98.832031 33.445312 98.8125 33.246094 98.8125 33.070312 L 98.8125 26.695312 C 98.8125 26.460938 98.832031 26.230469 98.882812 26.03125 C 98.957031 25.691406 99.265625 25.027344 100.277344 25.027344 C 101.363281 25.027344 101.617188 25.726562 101.691406 26.03125 C 101.726562 26.230469 101.726562 26.570312 101.726562 26.570312 L 101.726562 27.339844 L 105.273438 27.339844 L 105.273438 26.875 C 105.273438 26.875 105.292969 26.390625 105.257812 25.941406 C 104.984375 23.34375 102.792969 22.523438 100.296875 22.523438 C 97.796875 22.523438 95.664062 23.363281 95.355469 25.960938 C 95.320312 26.191406 95.28125 26.621094 95.28125 26.890625 L 95.28125 32.746094 C 95.28125 32.996094 95.28125 33.195312 95.335938 33.660156 C 95.570312 36.203125 97.796875 37.097656 100.296875 37.097656 C 102.8125 37.097656 105.019531 36.203125 105.257812 33.660156 C 105.292969 33.195312 105.3125 32.996094 105.3125 32.746094 L 105.3125 29.003906 Z M 100.316406 29.003906 " fill-opacity="1" fill-rule="nonzero"/></g></svg>