<svg xmlns="http://www.w3.org/2000/svg" xmlns:xlink="http://www.w3.org/1999/xlink" width="150" zoomAndPan="magnify" viewBox="0 0 112.5 60" height="80" preserveAspectRatio="xMidYMid meet" version="1.0"><defs><clipPath id="570ae9b5e0"><path d="M 10 27 L 31 27 L 31 44.445312 L 10 44.445312 Z M 10 27 " clip-rule="nonzero"/></clipPath><clipPath id="31a2a5f37c"><path d="M 13 15.324219 L 29 15.324219 L 29 20 L 13 20 Z M 13 15.324219 " clip-rule="nonzero"/></clipPath></defs><g clip-path="url(#570ae9b5e0)"><path fill="#107c10" d="M 20.75 27.011719 C 20.75 27.011719 20.773438 27.011719 20.75 27.011719 C 25.164062 30.351562 32.671875 38.550781 30.390625 40.855469 C 27.796875 43.097656 24.429688 44.445312 20.75 44.445312 C 17.070312 44.445312 13.660156 43.097656 11.109375 40.855469 C 8.808594 38.53125 16.335938 30.332031 20.707031 27.03125 C 20.707031 27.011719 20.75 27.011719 20.75 27.011719 Z M 20.75 27.011719 " fill-opacity="1" fill-rule="nonzero"/></g><g clip-path="url(#31a2a5f37c)"><path fill="#107c10" d="M 28.382812 17.464844 C 26.144531 16.113281 23.699219 15.324219 20.75 15.324219 C 17.800781 15.324219 15.332031 16.113281 13.097656 17.464844 C 13.054688 17.464844 13.054688 17.503906 13.054688 17.523438 C 13.054688 17.546875 13.097656 17.566406 13.117188 17.566406 C 15.960938 16.945312 20.269531 19.371094 20.6875 19.640625 L 20.75 19.640625 C 21.148438 19.394531 25.457031 16.964844 28.320312 17.566406 C 28.363281 17.566406 28.382812 17.566406 28.382812 17.523438 C 28.382812 17.484375 28.425781 17.464844 28.382812 17.464844 Z M 28.382812 17.464844 " fill-opacity="1" fill-rule="nonzero"/></g><path fill="#107c10" d="M 10.480469 19.496094 C 10.441406 19.496094 10.441406 19.539062 10.417969 19.539062 C 7.742188 22.175781 6.089844 25.847656 6.089844 29.875 C 6.089844 33.175781 7.21875 36.246094 9.082031 38.695312 C 9.082031 38.738281 9.121094 38.738281 9.144531 38.738281 C 9.183594 38.738281 9.183594 38.695312 9.144531 38.675781 C 8.035156 35.1875 13.765625 26.886719 16.714844 23.421875 L 16.757812 23.378906 C 16.757812 23.335938 16.757812 23.335938 16.714844 23.335938 C 12.238281 18.914062 10.734375 19.394531 10.480469 19.496094 Z M 10.480469 19.496094 " fill-opacity="1" fill-rule="nonzero"/><path fill="#107c10" d="M 24.765625 23.296875 L 24.722656 23.335938 C 24.722656 23.335938 24.722656 23.378906 24.765625 23.378906 C 27.734375 26.867188 33.425781 35.167969 32.335938 38.613281 L 32.335938 38.675781 C 32.378906 38.675781 32.398438 38.675781 32.398438 38.632812 C 34.261719 36.207031 35.390625 33.113281 35.390625 29.8125 C 35.390625 25.785156 33.738281 22.132812 31.039062 19.476562 C 31 19.433594 31 19.433594 30.976562 19.433594 C 30.746094 19.394531 29.261719 18.914062 24.765625 23.296875 Z M 24.765625 23.296875 " fill-opacity="1" fill-rule="nonzero"/><path fill="#107c10" d="M 56.640625 38.839844 L 53.628906 38.839844 L 48.417969 31.722656 L 43.191406 38.863281 L 40.179688 38.863281 L 46.871094 29.667969 L 40.722656 21.21875 L 43.734375 21.21875 L 48.417969 27.613281 L 53.105469 21.21875 L 56.117188 21.21875 L 49.925781 29.667969 Z M 72.324219 33.839844 C 72.324219 35.375 71.800781 36.621094 70.777344 37.492188 C 69.753906 38.363281 68.265625 38.839844 66.363281 38.839844 L 58.082031 38.839844 L 58.082031 30.976562 L 54.109375 30.976562 L 55.761719 28.710938 L 58.082031 28.710938 L 58.082031 21.21875 L 66.050781 21.21875 C 67.847656 21.21875 69.230469 21.65625 70.171875 22.507812 C 71.132812 23.359375 71.613281 24.480469 71.613281 25.828125 C 71.613281 27.507812 70.839844 28.816406 69.292969 29.667969 C 70.296875 30.042969 71.027344 30.621094 71.53125 31.308594 C 72.074219 32.011719 72.324219 32.882812 72.324219 33.839844 Z M 60.757812 28.753906 L 65.839844 28.753906 C 66.867188 28.753906 67.640625 28.527344 68.164062 28.070312 C 68.683594 27.632812 68.9375 26.929688 68.9375 26.015625 C 68.9375 25.246094 68.683594 24.625 68.121094 24.1875 C 67.597656 23.753906 66.824219 23.523438 65.839844 23.523438 L 60.757812 23.523438 Z M 69.605469 33.757812 C 69.605469 32.84375 69.3125 32.117188 68.75 31.679688 C 68.203125 31.203125 67.347656 30.996094 66.238281 30.996094 L 60.738281 30.996094 L 60.738281 36.496094 L 66.195312 36.496094 C 67.261719 36.496094 68.121094 36.246094 68.707031 35.8125 C 69.3125 35.332031 69.605469 34.648438 69.605469 33.757812 Z M 90.601562 30.042969 C 90.601562 31.390625 90.414062 32.675781 90.019531 33.777344 C 89.621094 34.878906 89.015625 35.851562 88.238281 36.703125 C 87.425781 37.554688 86.503906 38.199219 85.480469 38.613281 C 84.453125 39.050781 83.261719 39.234375 81.945312 39.234375 C 80.648438 39.234375 79.433594 39.007812 78.410156 38.613281 C 77.386719 38.175781 76.464844 37.554688 75.648438 36.703125 C 74.835938 35.851562 74.25 34.878906 73.851562 33.777344 C 73.453125 32.675781 73.265625 31.390625 73.265625 30.042969 C 73.265625 28.691406 73.453125 27.40625 73.851562 26.304688 C 74.25 25.203125 74.855469 24.1875 75.648438 23.335938 C 76.421875 22.484375 77.34375 21.882812 78.410156 21.425781 C 79.433594 21.03125 80.648438 20.804688 81.945312 20.804688 C 83.242188 20.804688 84.414062 21.03125 85.480469 21.425781 C 86.503906 21.820312 87.464844 22.484375 88.238281 23.335938 C 89.015625 24.1875 89.640625 25.203125 90.019531 26.304688 C 90.394531 27.40625 90.601562 28.652344 90.601562 30.042969 Z M 76.046875 30.042969 C 76.046875 32.117188 76.589844 33.777344 77.679688 34.980469 C 78.746094 36.183594 80.144531 36.808594 81.945312 36.808594 C 83.722656 36.808594 85.144531 36.183594 86.210938 34.980469 C 87.277344 33.777344 87.800781 32.136719 87.800781 30.042969 C 87.800781 27.945312 87.277344 26.285156 86.210938 25.058594 C 85.144531 23.855469 83.703125 23.234375 81.945312 23.234375 C 80.1875 23.234375 78.746094 23.855469 77.679688 25.058594 C 76.613281 26.304688 76.046875 27.945312 76.046875 30.042969 Z M 99.15625 29.667969 L 105.347656 21.21875 L 102.335938 21.21875 L 97.652344 27.613281 L 92.964844 21.21875 L 89.953125 21.21875 L 96.144531 29.667969 L 89.433594 38.839844 L 92.464844 38.839844 L 97.652344 31.722656 L 102.878906 38.863281 L 105.890625 38.863281 Z M 99.15625 29.667969 " fill-opacity="1" fill-rule="nonzero"/></svg>